<svg xmlns="http://www.w3.org/2000/svg" xmlns:xlink="http://www.w3.org/1999/xlink" width="144.12" height="78.03" viewBox="0 0 144.12 78.03">
  <defs>
    <style>
      .cls-1 {
        filter: url(#filter);
      }

      .cls-2 {
        fill: #333;
        fill-rule: evenodd;
      }
    </style>
    <filter id="filter" filterUnits="userSpaceOnUse">
      <feFlood result="flood" flood-color="#fff"/>
      <feComposite result="composite" operator="in" in2="SourceGraphic"/>
      <feBlend result="blend" in2="SourceGraphic"/>
    </filter>
  </defs>
  <g id="footer_logo_pc.svg" class="cls-1">
    <path id="Kirameki_Beauty_Labo" data-name="Kirameki Beauty Labo" class="cls-2" d="M3522.06,5217.82l-5.18-6.43v1.02l5.02-5.85h-3.12l-4.46,5.39,4.6,5.87h3.14Zm-7.49,0v-11.26h-2.53v11.26h2.53Zm10.27,0v-7.88h-1.77v7.88h1.77Zm4.72-3.25a3.394,3.394,0,0,0,1.44-.29,2.194,2.194,0,0,0,.94-0.81,2.142,2.142,0,0,0,.34-1.21,2.165,2.165,0,0,0-.34-1.21,2.255,2.255,0,0,0-.93-0.82,3.2,3.2,0,0,0-1.39-.29h-1.89v1.36h1.69a1.094,1.094,0,0,1,.81.28,1.039,1.039,0,0,1-.01,1.43,1.132,1.132,0,0,1-.81.27h-1.68v1.29h1.83Zm-1.42,3.25v-7.88h-1.77v7.88h1.77Zm4.66,0-2.95-3.83-1.63.44,2.48,3.39h2.1Zm1.76,0,2.42-6.54h-0.64l2.39,6.54h1.87l-3.12-7.88h-1.6l-3.16,7.88h1.84Zm4.29-1.43v-1.43h-4.34v1.43h4.34Zm4.36,1.43v-4.92l-0.31.07,2.03,3.15h1.17l2.04-3.15-0.31-.07v4.92h1.77v-7.88h-1.28l-3.12,4.83h0.64l-3.13-4.83h-1.26v7.88h1.76Zm9.68,0v-7.88h-1.77v7.88h1.77Zm3.95,0v-1.52h-4.37v1.52h4.37Zm-0.4-3.29v-1.47h-3.97v1.47h3.97Zm0.34-3.09v-1.5h-4.31v1.5h4.31Zm8.28,6.38-3.63-4.5v0.71l3.52-4.09h-2.18l-3.13,3.77,3.23,4.11h2.19Zm-5.24,0v-7.88h-1.77v7.88h1.77Zm7.75,0v-7.88h-1.77v7.88h1.77Zm9.77,0a4.581,4.581,0,0,0,2.07-.43,3.278,3.278,0,0,0,1.32-1.17,3.174,3.174,0,0,0,.46-1.67,2.856,2.856,0,0,0-.78-2.04,4,4,0,0,0-2.22-1.1l-0.06.84a3.641,3.641,0,0,0,1.99-.99,2.447,2.447,0,0,0,.68-1.75,2.786,2.786,0,0,0-.4-1.48,2.828,2.828,0,0,0-1.17-1.07,3.933,3.933,0,0,0-1.86-.4h-2.95v1.95h2.47a1.561,1.561,0,0,1,1.01.31,1.1,1.1,0,0,1,.39.93,1.153,1.153,0,0,1-.39.95,1.561,1.561,0,0,1-1.01.31h-2.47v1.9h2.68a1.683,1.683,0,0,1,.84.19,1.421,1.421,0,0,1,.54.52,1.517,1.517,0,0,1,.19.77,1.457,1.457,0,0,1-.41,1.05,1.539,1.539,0,0,1-1.16.43h-2.68v1.95h2.92Zm-2.35,0v-11.26h-2.5v11.26h2.5Zm9.26,0v-7.88h-1.77v7.88h1.77Zm3.95,0v-1.52h-4.36v1.52h4.36Zm-0.39-3.29v-1.47h-3.97v1.47h3.97Zm0.33-3.09v-1.5h-4.3v1.5h4.3Zm2.52,6.38,2.42-6.54h-0.64l2.39,6.54h1.87l-3.12-7.88h-1.6l-3.16,7.88h1.84Zm4.29-1.43v-1.43h-4.34v1.43h4.34Zm7.43,1.14a2.958,2.958,0,0,0,1.16-1.14,3.251,3.251,0,0,0,.42-1.66v-4.79h-1.78v4.89a1.621,1.621,0,0,1-.2.81,1.392,1.392,0,0,1-.53.52,1.677,1.677,0,0,1-.79.19,1.738,1.738,0,0,1-.79-0.19,1.337,1.337,0,0,1-.55-0.53,1.527,1.527,0,0,1-.21-0.81v-4.88h-1.78v4.78a3.251,3.251,0,0,0,.42,1.66,3.1,3.1,0,0,0,1.18,1.15,3.568,3.568,0,0,0,1.73.41A3.528,3.528,0,0,0,3602.38,5217.53Zm6.67,0.29v-7.77h-1.77v7.77h1.77Zm2.49-6.35v-1.53h-6.76v1.53h6.76Zm4.34,3.41,3.09-4.94h-2.01l-2.36,3.99h1.32l-2.35-3.99h-2.06l3.07,4.94h1.3Zm0.26,2.94v-3.74h-1.77v3.74h1.77Zm9.66,0v-11.26h-2.53v11.26h2.53Zm5.04,0v-2.2h-5.62v2.2h5.62Zm2.37,0,2.43-6.54H3635l2.39,6.54h1.87l-3.13-7.88h-1.6l-3.15,7.88h1.83Zm4.3-1.43v-1.43h-4.34v1.43h4.34Zm5.99,1.43a3.264,3.264,0,0,0,1.45-.3,2.153,2.153,0,0,0,1.24-1.99,2,2,0,0,0-.55-1.43,2.75,2.75,0,0,0-1.55-.77l-0.04.59a2.541,2.541,0,0,0,1.4-.69,1.731,1.731,0,0,0,.47-1.23,1.928,1.928,0,0,0-1.1-1.78,2.744,2.744,0,0,0-1.3-.28h-2.06v1.36h1.72a1.077,1.077,0,0,1,.71.22,0.929,0.929,0,0,1,0,1.31,1.077,1.077,0,0,1-.71.22h-1.72v1.33h1.87a1.318,1.318,0,0,1,.59.13,1.038,1.038,0,0,1,.38.37,1.079,1.079,0,0,1,.13.54,1.043,1.043,0,0,1-.29.74,1.1,1.1,0,0,1-.81.3h-1.87v1.36h2.04Zm-1.65,0v-7.88h-1.75v7.88h1.75Zm10.92-.18a4.13,4.13,0,0,0,1.32-.86,3.885,3.885,0,0,0,.88-1.3,4.185,4.185,0,0,0,0-3.21,3.885,3.885,0,0,0-.88-1.3,4.228,4.228,0,0,0-1.33-.86,4.6,4.6,0,0,0-3.32,0,4.073,4.073,0,0,0-1.32.86,3.946,3.946,0,0,0-.88,1.29,4.185,4.185,0,0,0,0,3.21,4.015,4.015,0,0,0,.89,1.3,4.189,4.189,0,0,0,1.34.87A4.546,4.546,0,0,0,3652.77,5217.64Zm-2.63-1.46a2,2,0,0,1-.75-0.51,2.179,2.179,0,0,1-.48-0.79,2.712,2.712,0,0,1-.17-1.01,2.8,2.8,0,0,1,.29-1.3,2.086,2.086,0,0,1,.83-0.86,2.416,2.416,0,0,1,1.25-.31,2.687,2.687,0,0,1,.96.17,2.171,2.171,0,0,1,.75.51,2.137,2.137,0,0,1,.48.78,3.07,3.07,0,0,1-.12,2.31,2.111,2.111,0,0,1-.83.87,2.409,2.409,0,0,1-1.24.32A2.5,2.5,0,0,1,3650.14,5216.18Z" transform="translate(-3511.47 -5139.94)"/>
    <path id="KBL" class="cls-2" d="M3554.66,5197.88l-38.35-31.12v1.81l37.49-28.64h-4.24l-36.28,27.78,37.05,30.17h4.33Zm-40.42,0v-57.95h-2.77v57.95h2.77Zm72.89,0a23.572,23.572,0,0,0,10.04-1.97,15.352,15.352,0,0,0,6.58-5.57,15.142,15.142,0,0,0,2.33-8.4,14.734,14.734,0,0,0-3.33-9.69,16.392,16.392,0,0,0-9.22-5.4l-0.43,1.03a13.751,13.751,0,0,0,7.53-5.02,14.358,14.358,0,0,0,2.6-8.7,13.822,13.822,0,0,0-2.04-7.63,13.218,13.218,0,0,0-5.71-4.88,20.307,20.307,0,0,0-8.7-1.72h-19.56v2.49h19.56q6.225,0,9.95,3.17a10.861,10.861,0,0,1,3.73,8.74,11.647,11.647,0,0,1-3.29,8.71q-3.3,3.21-9.01,3.21h-20.94v2.32h21.38a16.331,16.331,0,0,1,7.62,1.71,12.635,12.635,0,0,1,7.01,11.66,12.241,12.241,0,0,1-4.29,9.77q-4.275,3.69-11.38,3.69h-20.34v2.48h19.91Zm-18.53,0v-57.95h-2.77v57.95h2.77Zm54.28,0v-57.95h-2.77v57.95h2.77Zm32.72,0v-2.48h-33.93v2.48h33.93Z" transform="translate(-3511.47 -5139.94)"/>
  </g>
</svg>
