<svg
  xmlns="http://www.w3.org/2000/svg"
  xmlns:xlink="http://www.w3.org/1999/xlink"
  width="97px" height="54px">
  <defs>
    <filter id="Filter_0">
      <feFlood flood-color="rgb(250, 125, 163)" flood-opacity="1" result="floodOut" />
      <feComposite operator="atop" in="floodOut" in2="SourceGraphic" result="compOut" />
      <feBlend mode="normal" in="compOut" in2="SourceGraphic" />
    </filter>

  </defs>
  <g filter="url(#Filter_0)">
    <path fill-rule="evenodd" fill="rgb(51, 51, 51)"
      d="M96.044,51.783 C95.904,52.115 95.708,52.406 95.458,52.654 C95.207,52.902 94.913,53.096 94.575,53.236 C94.237,53.377 93.873,53.447 93.482,53.447 C93.081,53.447 92.712,53.377 92.373,53.236 C92.035,53.096 91.739,52.901 91.483,52.650 C91.228,52.400 91.030,52.108 90.890,51.775 C90.749,51.442 90.679,51.082 90.679,50.697 C90.679,50.306 90.749,49.945 90.890,49.615 C91.030,49.284 91.225,48.995 91.476,48.747 C91.726,48.499 92.020,48.306 92.359,48.168 C92.697,48.030 93.066,47.961 93.467,47.961 C93.863,47.961 94.229,48.030 94.568,48.168 C94.906,48.306 95.201,48.499 95.454,48.747 C95.707,48.995 95.904,49.286 96.044,49.618 C96.184,49.952 96.255,50.314 96.255,50.704 C96.255,51.090 96.184,51.449 96.044,51.783 ZM94.932,50.017 C94.857,49.814 94.749,49.638 94.609,49.491 C94.469,49.343 94.302,49.230 94.109,49.152 C93.916,49.075 93.702,49.036 93.467,49.036 C93.151,49.036 92.874,49.105 92.637,49.243 C92.399,49.381 92.214,49.574 92.084,49.821 C91.954,50.069 91.889,50.361 91.889,50.697 C91.889,50.947 91.926,51.175 92.002,51.381 C92.077,51.586 92.183,51.763 92.321,51.910 C92.459,52.058 92.625,52.172 92.821,52.252 C93.016,52.332 93.231,52.372 93.467,52.372 C93.782,52.372 94.059,52.302 94.297,52.162 C94.535,52.022 94.719,51.825 94.849,51.572 C94.980,51.319 95.045,51.027 95.045,50.697 C95.045,50.446 95.007,50.220 94.932,50.017 ZM90.191,51.816 C90.191,52.107 90.119,52.368 89.977,52.602 C89.834,52.835 89.628,53.018 89.361,53.154 C89.092,53.289 88.771,53.357 88.395,53.357 L87.298,53.357 L87.035,53.357 L86.133,53.357 L86.133,48.052 L87.035,48.052 L87.298,48.052 L88.410,48.052 C88.751,48.052 89.040,48.115 89.278,48.239 C89.516,48.365 89.697,48.533 89.823,48.743 C89.948,48.953 90.010,49.187 90.010,49.442 C90.010,49.767 89.905,50.043 89.695,50.269 C89.604,50.366 89.490,50.448 89.361,50.519 C89.543,50.608 89.699,50.718 89.826,50.854 C90.069,51.115 90.191,51.436 90.191,51.816 ZM88.658,49.115 C88.538,49.017 88.380,48.968 88.185,48.968 L87.298,48.968 L87.298,50.148 L88.185,50.148 C88.380,50.148 88.538,50.099 88.658,50.002 C88.778,49.904 88.838,49.755 88.838,49.555 C88.838,49.359 88.778,49.213 88.658,49.115 ZM88.928,51.381 C88.868,51.275 88.784,51.193 88.677,51.133 C88.569,51.072 88.438,51.042 88.282,51.042 L87.298,51.042 L87.298,52.440 L88.282,52.440 C88.513,52.440 88.693,52.372 88.823,52.237 C88.953,52.102 89.018,51.937 89.018,51.741 C89.018,51.606 88.988,51.485 88.928,51.381 ZM83.974,52.395 L81.895,52.395 L81.542,53.357 L80.317,53.357 L82.421,48.052 L83.488,48.052 L85.570,53.357 L84.322,53.357 L83.974,52.395 ZM82.942,49.541 L82.248,51.433 L83.626,51.433 L82.942,49.541 ZM76.212,53.357 L74.913,53.357 L74.913,45.778 L76.598,45.778 L76.598,51.875 L79.958,51.875 L79.958,53.357 L76.598,53.357 L76.212,53.357 ZM70.160,53.357 L68.980,53.357 L68.980,51.148 L67.094,48.076 L67.094,49.081 L65.434,49.081 L65.434,53.357 L64.254,53.357 L64.254,49.081 L62.593,49.081 L62.593,48.052 L67.079,48.052 L67.094,48.052 L68.447,48.052 L69.577,49.989 L70.708,48.052 L72.046,48.052 L70.160,51.101 L70.160,53.357 ZM60.993,53.161 C60.662,53.347 60.279,53.439 59.843,53.439 C59.407,53.439 59.023,53.347 58.690,53.161 C58.357,52.976 58.096,52.719 57.908,52.391 C57.721,52.063 57.627,51.689 57.627,51.268 L57.627,48.052 L58.814,48.052 L58.814,51.335 C58.814,51.546 58.859,51.729 58.949,51.884 C59.039,52.039 59.163,52.158 59.321,52.241 C59.479,52.323 59.653,52.365 59.843,52.365 C60.044,52.365 60.219,52.323 60.369,52.241 C60.519,52.158 60.638,52.041 60.726,51.888 C60.814,51.735 60.858,51.553 60.858,51.343 L60.858,48.052 L62.045,48.052 L62.045,51.275 C62.045,51.696 61.952,52.069 61.767,52.395 C61.581,52.721 61.323,52.976 60.993,53.161 ZM55.610,52.395 L53.531,52.395 L53.178,53.357 L51.954,53.357 L54.058,48.052 L55.125,48.052 L57.206,53.357 L55.958,53.357 L55.610,52.395 ZM54.578,49.541 L53.884,51.433 L55.263,51.433 L54.578,49.541 ZM48.633,53.357 L47.731,53.357 L47.731,48.052 L48.633,48.052 L48.911,48.052 L51.503,48.052 L51.503,49.066 L48.911,49.066 L48.911,50.156 L51.277,50.156 L51.277,51.140 L48.911,51.140 L48.911,52.335 L51.540,52.335 L51.540,53.357 L48.911,53.357 L48.633,53.357 ZM46.866,51.156 C46.866,51.571 46.764,51.945 46.560,52.278 C46.356,52.611 46.062,52.873 45.680,53.067 C45.297,53.260 44.837,53.357 44.300,53.357 L42.733,53.357 L42.358,53.357 L41.069,53.357 L41.069,45.778 L42.358,45.778 L42.733,45.778 L44.322,45.778 C44.808,45.778 45.222,45.868 45.561,46.047 C45.901,46.226 46.161,46.465 46.340,46.766 C46.519,47.067 46.608,47.399 46.608,47.764 C46.608,48.229 46.458,48.623 46.157,48.945 C46.027,49.084 45.864,49.202 45.680,49.304 C45.941,49.430 46.164,49.588 46.345,49.782 C46.692,50.154 46.866,50.612 46.866,51.156 ZM44.676,47.297 C44.504,47.157 44.279,47.088 43.1000,47.088 L42.733,47.088 L42.733,48.773 L43.1000,48.773 C44.279,48.773 44.504,48.703 44.676,48.564 C44.848,48.424 44.934,48.211 44.934,47.925 C44.934,47.646 44.848,47.437 44.676,47.297 ZM45.062,50.533 C44.977,50.383 44.857,50.265 44.703,50.179 C44.549,50.094 44.361,50.050 44.139,50.050 L42.733,50.050 L42.733,52.047 L44.139,52.047 C44.468,52.047 44.726,51.950 44.912,51.757 C45.098,51.564 45.191,51.328 45.191,51.049 C45.191,50.856 45.148,50.684 45.062,50.533 ZM36.609,48.052 L37.789,48.052 L37.789,53.357 L36.609,53.357 L36.609,48.052 ZM34.656,53.357 L32.627,50.746 L32.627,53.357 L31.447,53.357 L31.447,48.052 L32.627,48.052 L32.627,50.445 L34.588,48.052 L36.046,48.052 L33.899,50.576 L36.121,53.357 L34.656,53.357 ZM27.728,53.357 L26.826,53.357 L26.826,48.052 L27.728,48.052 L28.006,48.052 L30.598,48.052 L30.598,49.066 L28.006,49.066 L28.006,50.156 L30.373,50.156 L30.373,51.140 L28.006,51.140 L28.006,52.335 L30.636,52.335 L30.636,53.357 L28.006,53.357 L27.728,53.357 ZM24.632,50.423 L23.482,52.214 L22.701,52.214 L21.551,50.414 L21.551,53.357 L20.379,53.357 L20.379,48.052 L21.221,48.052 L23.095,50.971 L24.963,48.052 L25.812,48.052 L25.812,53.357 L24.632,53.357 L24.632,50.423 ZM18.220,52.395 L16.141,52.395 L15.788,53.357 L14.616,53.357 L14.564,53.357 L13.219,53.357 L11.636,51.170 L11.513,51.170 L11.513,53.357 L10.333,53.357 L10.333,48.052 L11.235,48.052 L11.513,48.052 L12.497,48.052 C12.848,48.052 13.156,48.118 13.421,48.251 C13.687,48.384 13.895,48.568 14.045,48.803 C14.195,49.039 14.271,49.309 14.271,49.615 C14.271,49.925 14.195,50.197 14.045,50.430 C13.895,50.663 13.684,50.845 13.414,50.975 C13.263,51.048 13.096,51.098 12.915,51.130 L14.582,53.311 L16.668,48.052 L17.734,48.052 L19.816,53.357 L18.568,53.357 L18.220,52.395 ZM13.091,49.630 C13.091,49.440 13.028,49.282 12.903,49.156 C12.778,49.031 12.597,48.968 12.362,48.968 L11.513,48.968 L11.513,50.299 L12.354,50.299 C12.590,50.299 12.771,50.239 12.899,50.118 C13.027,49.998 13.091,49.835 13.091,49.630 ZM17.188,49.541 L16.494,51.433 L17.872,51.433 L17.188,49.541 ZM8.132,48.052 L9.311,48.052 L9.311,53.357 L8.132,53.357 L8.132,48.052 ZM5.367,53.357 L2.468,49.628 L2.468,53.357 L0.783,53.357 L0.783,45.778 L2.468,45.778 L2.468,49.197 L5.270,45.778 L7.352,45.778 L4.286,49.385 L7.460,53.357 L5.367,53.357 Z" />
    <path fill-rule="evenodd" fill="rgb(51, 51, 51)"
      d="M96.462,39.939 L74.653,39.939 L73.845,39.939 L72.806,39.939 L72.806,0.936 L74.653,0.936 L74.653,38.266 L96.462,38.266 L96.462,39.939 ZM61.238,22.688 C62.719,24.496 63.460,26.669 63.460,29.207 C63.460,31.362 62.940,33.246 61.902,34.862 C60.863,36.477 59.401,37.727 57.517,38.612 C55.632,39.497 53.401,39.939 50.824,39.939 L38.477,39.939 L37.554,39.939 L36.631,39.939 L36.631,0.936 L37.554,0.936 L38.477,0.936 L50.593,0.936 C52.824,0.936 54.756,1.321 56.392,2.091 C58.026,2.861 59.296,3.957 60.200,5.379 C61.103,6.803 61.556,8.515 61.556,10.514 C61.556,12.822 60.979,14.774 59.825,16.370 C58.893,17.659 57.607,18.624 55.999,19.299 C58.186,19.966 59.933,21.095 61.238,22.688 ZM57.517,16.486 C58.978,15.043 59.709,13.091 59.709,10.630 C59.709,8.130 58.882,6.168 57.228,4.744 C55.574,3.322 53.363,2.610 50.593,2.610 L38.477,2.610 L38.477,18.649 L51.516,18.649 C54.055,18.649 56.055,17.928 57.517,16.486 ZM51.805,20.207 L38.477,20.207 L38.477,38.266 L51.113,38.266 C54.266,38.266 56.796,37.439 58.700,35.785 C60.604,34.132 61.556,31.939 61.556,29.207 C61.556,27.439 61.142,25.881 60.315,24.534 C59.488,23.188 58.344,22.131 56.882,21.361 C55.420,20.592 53.728,20.207 51.805,20.207 ZM26.304,39.939 L2.244,20.152 L2.244,39.939 L0.398,39.939 L0.398,0.936 L2.244,0.936 L2.244,19.139 L25.784,0.936 L28.611,0.936 L4.391,19.619 L29.188,39.939 L26.304,39.939 Z" />
  </g>
</svg>