<svg xmlns="http://www.w3.org/2000/svg" width="261.69" height="19.34" viewBox="0 0 261.69 19.34">
  <defs>
    <style>
      .cls-1 {
        fill: #4d2b1b;
        fill-rule: evenodd;
      }
    </style>
  </defs>
  <path id="point_logo_01.svg" class="cls-1" d="M3412.92,1586.34l5.14-5.25c1.05-1.08,1.85-1.85,2.54-2.55h-4.54a11.708,11.708,0,0,1-1.87,2.33l-6.12,6.36v-5.59a16.6,16.6,0,0,1,.22-3.1h-3.56a19.051,19.051,0,0,1,.2,3.1v12.91a19.727,19.727,0,0,1-.2,3.09h3.56a16.054,16.054,0,0,1-.22-3.09v-3.53l2.62-2.62,4.77,6.72a21.357,21.357,0,0,1,1.52,2.52h4.44a31.493,31.493,0,0,1-2.4-3.05Zm10.99-2.16a12.575,12.575,0,0,1,.14,2.17v9.04a12.728,12.728,0,0,1-.14,2.17h2.56a12.728,12.728,0,0,1-.14-2.17v-9.04a12.575,12.575,0,0,1,.14-2.17h-2.56Zm16.91,13.38c-0.23-.46-0.65-1.37-0.79-1.67-1.66-3.93-1.98-4.4-3.04-4.74a3.516,3.516,0,0,0,1.87-.97,3.46,3.46,0,0,0,.85-2.5c0-2.22-1.46-3.5-4.01-3.5h-4.04c-0.92,0-1.44-.01-2.15-0.05a15.175,15.175,0,0,1,.13,2.19v9.05a13.374,13.374,0,0,1-.13,2.19h2.5a13.41,13.41,0,0,1-.13-2.21v-3.42h2.5c1.3,0,1.89.62,2.79,2.94a13.764,13.764,0,0,1,.88,2.69h2.77Zm-8.94-7.55v-3.91h3.45c1.37,0,2.06.62,2.06,1.83a2.014,2.014,0,0,1-.53,1.48,2.309,2.309,0,0,1-1.6.6h-3.38Zm23.5,7.55a16.77,16.77,0,0,1-.86-1.99l-3.73-9.69a10.177,10.177,0,0,1-.57-1.7h-2.93a10.157,10.157,0,0,1-.53,1.7l-3.7,9.69a20.645,20.645,0,0,1-.89,1.99h2.75a8.334,8.334,0,0,1,.51-1.77l0.67-1.83h5.38l0.67,1.83a10.668,10.668,0,0,1,.47,1.77h2.76Zm-4.51-5.53h-4.17l1.75-4.98c0.05-.15.05-0.15,0.32-0.94,0.19,0.56.24,0.76,0.3,0.94Zm14.64,5.53a14.069,14.069,0,0,1,.74-2.24l2.52-5.91a20.117,20.117,0,0,0,.78-2.46c-0.02.26-.07,1.11-0.14,2.57v5.58a15.927,15.927,0,0,1-.13,2.46h2.35a14.9,14.9,0,0,1-.13-2.46v-8.43a17.644,17.644,0,0,1,.13-2.49h-3.09a9.192,9.192,0,0,1-.61,2l-3.39,8.33-3.41-8.33a11.342,11.342,0,0,1-.63-2h-3.07a16.948,16.948,0,0,1,.13,2.49v8.43a16.09,16.09,0,0,1-.13,2.46h2.35a15.685,15.685,0,0,1-.13-2.46v-5.51c0-.37-0.07-1.75-0.14-2.64a18.27,18.27,0,0,0,.86,2.57l2.42,5.77a10.912,10.912,0,0,1,.74,2.27h1.98Zm18.73-2.12a16.7,16.7,0,0,1-2.15.12h-5.05v-3.97h4.11a13.179,13.179,0,0,1,2.18.12v-2.2a18.241,18.241,0,0,1-2.18.12h-4.09v-3.47h4.84a15.665,15.665,0,0,1,2.17.12v-2.22a16.807,16.807,0,0,1-2.17.12h-5.07c-1.03,0-1.47-.01-2.14-0.05a15.029,15.029,0,0,1,.14,2.17v9.09a13.7,13.7,0,0,1-.14,2.22c0.67-.04,1.13-0.05,2.14-0.05h5.24a15.256,15.256,0,0,1,2.17.11v-2.23Zm8.37-5.8,3.6-3.68c0.74-.75,1.29-1.29,1.78-1.78h-3.18a8.387,8.387,0,0,1-1.31,1.63l-4.29,4.45v-3.91a12.183,12.183,0,0,1,.15-2.17h-2.48a14.051,14.051,0,0,1,.13,2.17v9.04a14.634,14.634,0,0,1-.13,2.17h2.48a12.139,12.139,0,0,1-.15-2.17v-2.47l1.84-1.83,3.34,4.7a15.018,15.018,0,0,1,1.06,1.77h3.11a23.573,23.573,0,0,1-1.68-2.14Zm8.05-5.46a12.738,12.738,0,0,1,.13,2.17v9.04a12.886,12.886,0,0,1-.13,2.17h2.55a12.886,12.886,0,0,1-.13-2.17v-9.04a12.738,12.738,0,0,1,.13-2.17h-2.55Zm24.04,13.46c3.99,0,6.22-1.89,6.22-5.25a4.711,4.711,0,0,0-1.49-3.67,4.448,4.448,0,0,0-2.42-1.11,3.994,3.994,0,0,0,1.89-1.01,4.267,4.267,0,0,0,1.35-3.38c0-3-2.09-4.68-5.81-4.68h-5.67c-1.63,0-2.01,0-3.02-.05a23.017,23.017,0,0,1,.19,2.96v13.02a16.836,16.836,0,0,1-.22,3.24c0.99-.04,1.68-0.07,3.08-0.07h5.9Zm-5.59-11.28v-5.13h4.97a3.378,3.378,0,0,1,2.3.74,2.428,2.428,0,0,1,.63,1.78c0,1.63-1.08,2.61-2.91,2.61h-4.99Zm0,2.67h5.11a3.963,3.963,0,0,1,2.62.81,2.6,2.6,0,0,1,.77,2.09c0,1.94-1.2,3-3.34,3h-5.16v-5.9Zm24.72,6.41a16.865,16.865,0,0,1-2.16.12h-5.04v-3.97h4.1a13.24,13.24,0,0,1,2.19.12v-2.2a18.3,18.3,0,0,1-2.19.12h-4.08v-3.47h4.84a15.665,15.665,0,0,1,2.17.12v-2.22a16.909,16.909,0,0,1-2.17.12h-5.08c-1.02,0-1.46-.01-2.13-0.05a15.069,15.069,0,0,1,.13,2.17v9.09a13.852,13.852,0,0,1-.13,2.22c0.67-.04,1.12-0.05,2.13-0.05h5.25a15.348,15.348,0,0,1,2.17.11v-2.23Zm14.84,2.12a16.77,16.77,0,0,1-.86-1.99l-3.73-9.69a10.177,10.177,0,0,1-.57-1.7h-2.93a9.515,9.515,0,0,1-.54,1.7l-3.69,9.69a20.645,20.645,0,0,1-.89,1.99h2.75a8.334,8.334,0,0,1,.51-1.77l0.67-1.83h5.38l0.67,1.83a10.668,10.668,0,0,1,.47,1.77h2.76Zm-4.51-5.53h-4.17l1.75-4.98c0.05-.15.05-0.15,0.32-0.94,0.19,0.56.24,0.76,0.3,0.94Zm15.62-7.85a13.855,13.855,0,0,1,.13,2.3v5.92c0,2.28-1.16,3.48-3.41,3.48-2.27,0-3.45-1.2-3.45-3.47v-5.93a13.119,13.119,0,0,1,.14-2.3h-2.51a12.8,12.8,0,0,1,.14,2.3v5.93a5.423,5.423,0,0,0,1.26,3.87,5.78,5.78,0,0,0,4.34,1.58c3.66,0,5.73-1.95,5.73-5.43v-5.96a13.8,13.8,0,0,1,.13-2.29h-2.5Zm11.44,2.02h2.11a16.768,16.768,0,0,1,2.47.12v-2.26a16.855,16.855,0,0,1-2.47.12h-6.66a16.016,16.016,0,0,1-2.29-.12v2.26a15.791,15.791,0,0,1,2.31-.12h2.27v9.17a14.221,14.221,0,0,1-.14,2.19h2.54a14.049,14.049,0,0,1-.14-2.19v-9.17Zm13.15,11.36a13.949,13.949,0,0,1-.14-2.17v-3.31l3.89-6.17c0.28-.47.92-1.39,1.16-1.73h-2.93a7.565,7.565,0,0,1-.79,1.67l-2.47,4.11-2.44-4.13a6.62,6.62,0,0,1-.8-1.65h-2.94c0.53,0.77.92,1.33,1.17,1.73l3.89,6.15v3.33a16.817,16.817,0,0,1-.14,2.17h2.54Zm29.99-2.99a25.342,25.342,0,0,1-3.41.17h-6.72v-12.67a22.51,22.51,0,0,1,.19-3.53h-3.63a22.481,22.481,0,0,1,.2,3.55v12.46a18.148,18.148,0,0,1-.2,3.16c0.87-.04,1.71-0.07,3.05-0.07h7.11a23.352,23.352,0,0,1,3.41.17v-3.24Zm14.53,2.99a16.77,16.77,0,0,1-.86-1.99l-3.73-9.69a10.177,10.177,0,0,1-.57-1.7h-2.93a9.515,9.515,0,0,1-.54,1.7l-3.69,9.69a20.645,20.645,0,0,1-.89,1.99h2.75a8.334,8.334,0,0,1,.51-1.77l0.67-1.83h5.38l0.67,1.83a11.746,11.746,0,0,1,.47,1.77h2.76Zm-4.51-5.53h-4.17l1.75-4.98c0.05-.15.05-0.15,0.32-0.94,0.19,0.56.24,0.76,0.3,0.94Zm12.84,5.53c2.79,0,4.36-1.33,4.36-3.68a3.321,3.321,0,0,0-1.04-2.57,3.175,3.175,0,0,0-1.7-.78,2.889,2.889,0,0,0,1.33-.7,3.045,3.045,0,0,0,.94-2.37c0-2.1-1.47-3.28-4.07-3.28h-3.97c-1.14,0-1.41,0-2.12-.03a14.971,14.971,0,0,1,.14,2.07v9.12a11.89,11.89,0,0,1-.15,2.27c0.69-.04,1.17-0.05,2.15-0.05h4.13Zm-3.91-7.9v-3.6h3.48a2.41,2.41,0,0,1,1.61.52,1.734,1.734,0,0,1,.44,1.25,1.787,1.787,0,0,1-2.04,1.83h-3.49Zm0,1.86h3.58a2.8,2.8,0,0,1,1.83.57,1.833,1.833,0,0,1,.54,1.47c0,1.36-.84,2.1-2.34,2.1h-3.61v-4.14Zm16.79-7.61a5.847,5.847,0,0,0-4.34,1.68,7.219,7.219,0,0,0-1.91,5.25c0,4.26,2.45,7,6.27,7s6.28-2.75,6.28-7a7.246,7.246,0,0,0-1.88-5.25A5.894,5.894,0,0,0,3660.1,1583.91Zm0.05,11.93a3.639,3.639,0,0,1-2.61-1.02,5.59,5.59,0,0,1-1.36-3.97c0-3.04,1.53-4.95,3.95-4.95a3.625,3.625,0,0,1,2.59,1.02,5.428,5.428,0,0,1,1.33,3.92C3664.05,1593.93,3662.55,1595.84,3660.15,1595.84Z" transform="translate(-3404.72 -1578.5)"/>
</svg>
