<svg
  xmlns="http://www.w3.org/2000/svg"
  xmlns:xlink="http://www.w3.org/1999/xlink"
  width="197px" height="16px">
  <path fill-rule="evenodd" fill="rgb(77, 43, 27)"
    d="M191.890,15.489 C189.030,15.489 187.189,13.435 187.189,10.233 C187.189,8.607 187.694,7.208 188.626,6.301 C189.496,5.444 190.542,5.041 191.878,5.041 C193.264,5.041 194.336,5.444 195.193,6.301 C196.113,7.221 196.604,8.595 196.604,10.233 C196.604,13.422 194.752,15.489 191.890,15.489 ZM193.844,7.296 C193.328,6.792 192.659,6.528 191.903,6.528 C190.088,6.528 188.941,7.964 188.941,10.246 C188.941,11.506 189.307,12.565 189.962,13.220 C190.479,13.724 191.147,13.989 191.916,13.989 C193.718,13.989 194.840,12.552 194.840,10.233 C194.840,8.960 194.487,7.939 193.844,7.296 ZM185.491,12.515 C185.491,14.279 184.319,15.275 182.227,15.275 L179.126,15.275 C178.395,15.275 178.030,15.288 177.513,15.313 C177.601,14.783 177.626,14.418 177.626,13.611 L177.626,6.767 C177.626,6.188 177.588,5.734 177.525,5.217 C178.055,5.242 178.256,5.242 179.113,5.242 L182.088,5.242 C184.041,5.242 185.138,6.124 185.138,7.700 C185.138,8.469 184.911,9.036 184.432,9.477 C184.155,9.742 183.928,9.855 183.436,10.007 C184.079,10.145 184.369,10.271 184.709,10.586 C185.226,11.065 185.491,11.695 185.491,12.515 ZM183.109,7.045 C182.831,6.792 182.403,6.654 181.899,6.654 L179.290,6.654 L179.290,9.351 L181.911,9.351 C182.869,9.351 183.436,8.834 183.436,7.977 C183.436,7.574 183.310,7.234 183.109,7.045 ZM183.348,11.179 C183.033,10.901 182.554,10.750 181.974,10.750 L179.290,10.750 L179.290,13.851 L181.1000,13.851 C183.121,13.851 183.752,13.296 183.752,12.275 C183.752,11.771 183.625,11.431 183.348,11.179 ZM173.558,13.951 L173.054,12.578 L169.021,12.578 L168.517,13.951 C168.290,14.556 168.240,14.745 168.139,15.275 L166.072,15.275 C166.261,14.934 166.513,14.367 166.740,13.787 L169.512,6.515 C169.752,5.885 169.853,5.570 169.916,5.242 L172.109,5.242 C172.172,5.544 172.248,5.746 172.537,6.515 L175.335,13.787 C175.651,14.594 175.802,14.947 175.978,15.275 L173.911,15.275 C173.836,14.859 173.697,14.317 173.558,13.951 ZM171.252,7.397 C171.201,7.259 171.164,7.108 171.025,6.691 C170.823,7.284 170.823,7.284 170.786,7.397 L169.475,11.128 L172.600,11.128 L171.252,7.397 ZM162.534,15.339 L157.204,15.339 C156.196,15.339 155.566,15.358 154.917,15.393 C155.025,14.727 155.061,14.061 155.061,13.017 L155.061,3.672 C155.061,2.430 155.025,1.782 154.917,1.007 L157.636,1.007 C157.528,1.745 157.492,2.340 157.492,3.654 L157.492,13.161 L162.534,13.161 C163.758,13.161 164.334,13.125 165.090,13.035 L165.090,15.466 C164.442,15.375 163.812,15.339 162.534,15.339 ZM142.504,11.166 L142.504,13.649 C142.504,14.279 142.529,14.796 142.605,15.275 L140.702,15.275 C140.765,14.796 140.803,14.292 140.803,13.649 L140.803,11.154 L137.891,6.540 C137.702,6.238 137.412,5.822 137.009,5.242 L139.214,5.242 C139.315,5.582 139.479,5.923 139.819,6.477 L141.647,9.578 L143.500,6.490 C143.815,5.948 144.004,5.570 144.092,5.242 L146.285,5.242 C146.109,5.494 145.630,6.188 145.416,6.540 L142.504,11.166 ZM134.327,6.755 L132.752,6.755 L132.752,13.637 C132.752,14.317 132.777,14.758 132.852,15.275 L130.949,15.275 C131.025,14.745 131.050,14.317 131.050,13.637 L131.050,6.755 L129.349,6.755 C128.605,6.755 128.063,6.780 127.622,6.843 L127.622,5.154 C128.076,5.217 128.618,5.242 129.336,5.242 L134.327,5.242 C135.235,5.242 135.701,5.217 136.180,5.154 L136.180,6.843 C135.714,6.780 135.235,6.755 134.327,6.755 ZM125.949,11.431 C125.949,14.040 124.399,15.502 121.651,15.502 C120.252,15.502 119.092,15.073 118.399,14.317 C117.756,13.624 117.454,12.679 117.454,11.418 L117.454,6.969 C117.454,6.188 117.429,5.696 117.353,5.242 L119.231,5.242 C119.155,5.671 119.130,6.150 119.130,6.969 L119.130,11.418 C119.130,13.119 120.012,14.014 121.714,14.014 C123.403,14.014 124.272,13.119 124.272,11.405 L124.272,6.969 C124.272,6.163 124.247,5.709 124.172,5.242 L126.050,5.242 C125.974,5.709 125.949,6.163 125.949,6.956 L125.949,11.431 ZM113.424,13.951 L112.920,12.578 L108.887,12.578 L108.382,13.951 C108.156,14.556 108.105,14.745 108.004,15.275 L105.937,15.275 C106.126,14.934 106.379,14.367 106.605,13.787 L109.378,6.515 C109.618,5.885 109.718,5.570 109.781,5.242 L111.974,5.242 C112.038,5.544 112.113,5.746 112.403,6.515 L115.201,13.787 C115.516,14.594 115.667,14.947 115.844,15.275 L113.777,15.275 C113.701,14.859 113.562,14.317 113.424,13.951 ZM111.117,7.397 C111.067,7.259 111.029,7.108 110.890,6.691 C110.689,7.284 110.689,7.284 110.651,7.397 L109.340,11.128 L112.466,11.128 L111.117,7.397 ZM103.092,15.275 L99.159,15.275 C98.403,15.275 98.063,15.288 97.559,15.313 C97.634,14.808 97.659,14.393 97.659,13.649 L97.659,6.830 C97.659,6.175 97.634,5.797 97.559,5.205 C98.063,5.230 98.390,5.242 99.159,5.242 L102.966,5.242 C103.596,5.242 104.012,5.217 104.591,5.154 L104.591,6.818 C104.112,6.755 103.709,6.729 102.966,6.729 L99.336,6.729 L99.336,9.326 L102.398,9.326 C103.054,9.326 103.482,9.301 104.037,9.238 L104.037,10.889 C103.520,10.813 103.180,10.800 102.398,10.800 L99.323,10.800 L99.323,13.775 L103.104,13.775 C103.810,13.775 104.175,13.750 104.717,13.687 L104.717,15.363 C104.264,15.300 103.860,15.275 103.092,15.275 ZM95.047,11.396 C95.047,13.917 93.373,15.339 90.384,15.339 L85.955,15.339 C84.910,15.339 84.388,15.358 83.650,15.393 C83.776,14.637 83.812,14.115 83.812,12.963 L83.812,3.186 C83.812,2.358 83.758,1.710 83.668,0.971 C84.424,1.007 84.712,1.007 85.937,1.007 L90.186,1.007 C92.977,1.007 94.543,2.268 94.543,4.518 C94.543,5.617 94.219,6.427 93.535,7.057 C93.139,7.435 92.815,7.597 92.113,7.813 C93.031,8.011 93.445,8.192 93.931,8.642 C94.669,9.326 95.047,10.226 95.047,11.396 ZM91.644,3.582 C91.248,3.222 90.636,3.024 89.916,3.024 L86.189,3.024 L86.189,6.877 L89.934,6.877 C91.302,6.877 92.113,6.139 92.113,4.914 C92.113,4.338 91.932,3.852 91.644,3.582 ZM91.987,9.488 C91.536,9.092 90.852,8.876 90.024,8.876 L86.189,8.876 L86.189,13.305 L90.060,13.305 C91.662,13.305 92.563,12.513 92.563,11.055 C92.563,10.334 92.383,9.848 91.987,9.488 ZM74.272,15.275 L72.357,15.275 C72.432,14.796 72.457,14.393 72.457,13.649 L72.457,6.868 C72.457,6.087 72.432,5.746 72.357,5.242 L74.272,5.242 C74.197,5.721 74.172,6.112 74.172,6.868 L74.172,13.649 C74.172,14.393 74.197,14.796 74.272,15.275 ZM70.784,15.275 L68.453,15.275 C68.264,14.897 67.948,14.367 67.659,13.951 L65.150,10.422 L63.777,11.796 L63.777,13.649 C63.777,14.393 63.802,14.745 63.890,15.275 L62.025,15.275 C62.100,14.708 62.126,14.317 62.126,13.649 L62.126,6.868 C62.126,6.188 62.100,5.772 62.025,5.242 L63.890,5.242 C63.815,5.658 63.777,6.150 63.777,6.868 L63.777,9.805 L66.991,6.465 C67.482,5.961 67.722,5.658 67.974,5.242 L70.356,5.242 C69.990,5.608 69.574,6.011 69.020,6.578 L66.323,9.339 L69.524,13.674 C70.280,14.695 70.419,14.871 70.784,15.275 ZM58.423,15.275 L54.490,15.275 C53.734,15.275 53.394,15.288 52.890,15.313 C52.965,14.808 52.990,14.393 52.990,13.649 L52.990,6.830 C52.990,6.175 52.965,5.797 52.890,5.205 C53.394,5.230 53.722,5.242 54.490,5.242 L58.297,5.242 C58.927,5.242 59.343,5.217 59.923,5.154 L59.923,6.818 C59.444,6.755 59.040,6.729 58.297,6.729 L54.667,6.729 L54.667,9.326 L57.730,9.326 C58.385,9.326 58.813,9.301 59.368,9.238 L59.368,10.889 C58.851,10.813 58.511,10.800 57.730,10.800 L54.654,10.800 L54.654,13.775 L58.435,13.775 C59.141,13.775 59.507,13.750 60.049,13.687 L60.049,15.363 C59.595,15.300 59.192,15.275 58.423,15.275 ZM50.600,15.275 L48.835,15.275 C48.911,14.758 48.936,14.304 48.936,13.435 L48.936,9.250 C48.986,8.153 49.024,7.511 49.037,7.322 C48.873,8.002 48.633,8.708 48.457,9.162 L46.566,13.598 C46.314,14.191 46.087,14.897 46.012,15.275 L44.525,15.275 C44.462,14.871 44.260,14.279 43.970,13.573 L42.155,9.250 C41.916,8.683 41.802,8.343 41.512,7.322 C41.563,7.990 41.613,9.023 41.613,9.301 L41.613,13.435 C41.613,14.304 41.638,14.783 41.714,15.275 L39.949,15.275 C40.025,14.770 40.050,14.279 40.050,13.435 L40.050,7.108 C40.050,6.288 40.025,5.759 39.949,5.242 L42.256,5.242 C42.344,5.683 42.508,6.213 42.722,6.742 L45.281,12.993 L47.827,6.742 C48.079,6.124 48.192,5.721 48.281,5.242 L50.600,5.242 C50.524,5.847 50.499,6.263 50.499,7.108 L50.499,13.435 C50.499,14.355 50.524,14.808 50.600,15.275 ZM35.995,13.951 L35.491,12.578 L31.458,12.578 L30.954,13.951 C30.727,14.556 30.676,14.745 30.576,15.275 L28.509,15.275 C28.698,14.934 28.950,14.367 29.177,13.787 L31.949,6.515 C32.189,5.885 32.290,5.570 32.353,5.242 L34.546,5.242 C34.609,5.544 34.684,5.746 34.974,6.515 L37.772,13.787 C38.087,14.594 38.238,14.947 38.415,15.275 L36.348,15.275 C36.272,14.859 36.134,14.317 35.995,13.951 ZM33.689,7.397 C33.638,7.259 33.600,7.108 33.462,6.691 C33.260,7.284 33.260,7.284 33.222,7.397 L31.911,11.128 L35.037,11.128 L33.689,7.397 ZM24.768,13.258 C24.088,11.519 23.647,11.053 22.676,11.053 L20.798,11.053 L20.798,13.624 C20.798,14.380 20.823,14.783 20.899,15.275 L19.021,15.275 C19.096,14.745 19.122,14.405 19.122,13.637 L19.122,6.843 C19.122,6.175 19.096,5.797 19.021,5.205 C19.550,5.230 19.941,5.242 20.634,5.242 L23.659,5.242 C25.575,5.242 26.671,6.200 26.671,7.864 C26.671,8.671 26.457,9.301 26.029,9.742 C25.676,10.107 25.348,10.271 24.630,10.473 C25.424,10.725 25.663,11.078 26.911,14.027 C27.012,14.254 27.327,14.934 27.503,15.275 L25.424,15.275 C25.398,14.972 25.184,14.330 24.768,13.258 ZM24.932,8.053 C24.932,7.145 24.415,6.679 23.382,6.679 L20.798,6.679 L20.798,9.616 L23.331,9.616 C23.798,9.616 24.239,9.452 24.529,9.162 C24.793,8.897 24.932,8.532 24.932,8.053 ZM16.741,15.275 L14.825,15.275 C14.901,14.796 14.926,14.393 14.926,13.649 L14.926,6.868 C14.926,6.087 14.901,5.746 14.825,5.242 L16.741,5.242 C16.665,5.721 16.640,6.112 16.640,6.868 L16.640,13.649 C16.640,14.393 16.665,14.796 16.741,15.275 ZM12.962,15.339 L9.631,15.339 C9.361,14.800 8.911,14.043 8.497,13.449 L4.914,8.407 L2.951,10.370 L2.951,13.017 C2.951,14.079 2.987,14.583 3.113,15.339 L0.449,15.339 C0.557,14.529 0.593,13.971 0.593,13.017 L0.593,3.330 C0.593,2.358 0.557,1.764 0.449,1.007 L3.113,1.007 C3.005,1.601 2.951,2.303 2.951,3.330 L2.951,7.525 L7.543,2.754 C8.245,2.034 8.587,1.601 8.947,1.007 L12.350,1.007 C11.828,1.529 11.234,2.106 10.442,2.916 L6.588,6.859 L11.162,13.053 C12.242,14.511 12.440,14.763 12.962,15.339 Z" />
</svg>